<svg version="1.2" xmlns="http://www.w3.org/2000/svg" viewBox="0 0 390 390" width="390" height="390">
	<title>PC Store Managment System</title>
	<style>
		.s0 { fill: #7fdbca;stroke: #000000;stroke-linejoin: round;stroke-width: 2 } 
	</style>
	<path id="logo" fill-rule="evenodd" class="s0" d="m48.6 275c-15.3 0-27.9-12.5-27.9-27.9v-193.2c0-15.4 12.6-27.9 27.9-27.9h292.3c15.3 0 27.8 12.5 27.8 27.9v193.2c0 15.4-12.5 27.9-27.8 27.9h-98.8l2.8 26.2c0.2 2.1-0.5 4.2-1.9 5.8-1.5 1.6-3.5 2.5-5.6 2.5h-79.3c-2.1 0-4.2-0.9-5.6-2.5-1.4-1.6-2.1-3.7-1.9-5.8l2.8-26.2zm178.4 0h-58.5l-2.1 19.5h62.6zm-191.2-221.1v170.1h318v-170.1c0-7.1-5.8-12.9-12.9-12.9h-292.2c-7.1 0-12.9 5.8-12.9 12.9zm12.9 206.1h292.2c7.1 0 12.9-5.8 12.9-12.9v-8.1h-318v8.1c0 7.1 5.8 12.9 12.9 12.9zm285.6 103.5h-279c-2.6 0-5.1-1.4-6.4-3.6-1.4-2.3-1.5-5.1-0.3-7.4l14.8-28.5c1.3-2.5 3.9-4 6.7-4h249.4c2.8 0 5.3 1.5 6.6 4l14.8 28.5c1.2 2.3 1.1 5.1-0.2 7.4-1.4 2.2-3.8 3.6-6.4 3.6zm-12.4-15l-7-13.5h-240.2l-7.1 13.5zm-52.3-233.2l-9.6 16.8c-0.1 0-0.1 0-0.1 0-0.9 1.5-2.9 2.1-4.4 1.1l-7.3-4.4c-2.4 1.8-5.3 3.5-9 5.2v9.1c0.2 1.7-1.3 3.2-3.1 3.2h-19.4c-1.8 0-3.3-1.5-3.3-3.2v-8.8c-4.5-1.3-7.1-3.3-9.7-5.5l-7.7 4.3c1.1-0.1 2.1 0.5 2.6 1.5l9.6 16.8c0.9 1.5 0.4 3.5-1.1 4.4l-7.8 4.4c0.6 3.6 0.6 7.2 0 10.7l7.8 4.5c1.5 0.9 2 2.9 1.1 4.4l-9.6 16.8c-0.1 0-0.1 0-0.1 0-0.9 1.5-2.9 2-4.4 1.1l-7.3-4.4c-2.3 1.8-5.3 3.4-8.8 5.1v9.1c0 1.8-1.5 3.3-3.3 3.3h-19.2c-1.8 0-3.2-1.5-3-3.3v-8.6c-4.7-1.4-7.4-3.3-9.9-5.6l-8.1 4.5c-1.5 0.8-3.5 0.3-4.3-1.2l-9.7-16.8c-0.9-1.5-0.4-3.5 1.2-4.4l7.7-4.4c-0.6-3.5-0.5-7.1 0-10.7l-7.6-4.4c-1.6-0.9-2.1-2.9-1.2-4.5l9.7-16.7c0.9-1.5 2.9-2.1 4.4-1.2l7.9 4.5c2.5-2.3 5.2-4.3 9.5-5.6v-8.7c0.2-1.8 1.6-3.2 3.4-3.2h19.2c1.8 0 3.2 1.4 3.2 3.2v9.1c3.6 1.7 6.5 3.4 8.8 5.2l7.2-4.4c-1.1 0-2.1-0.6-2.6-1.5l-9.7-16.8c-0.9-1.5-0.3-3.5 1.2-4.4l7.7-4.3c-0.6-3.6-0.5-7.2 0-10.7l-7.6-4.5c-1.6-0.9-2.1-2.9-1.2-4.4l9.8-16.8c0.9-1.5 2.8-2 4.4-1.2l7.8 4.5c2.6-2.3 5.3-4.2 9.7-5.6v-8.7c0-1.8 1.5-3.2 3.3-3.2h19.5c1.7 0 3.2 1.4 3.4 3.2v9.1c3.4 1.7 6.3 3.4 8.6 5.1l7.3-4.4c1.6-0.9 3.6-0.4 4.5 1.2l9.6 16.7c0.9 1.6 0.4 3.5-1.2 4.4l-7.7 4.5c0.6 3.5 0.6 7.1 0 10.7l7.7 4.4c1.6 0.9 2.1 2.9 1.2 4.4zm-74.8 25.4l-6.5 3.9c-1.2 0.8-2.8 0.6-3.9-0.4-2.3-2.1-5.9-4.2-10.8-6.4-1.1-0.5-1.9-1.6-2-2.9v-8h-12.6v7.9c-0.2 1.5-1.2 2.9-2.7 3.2-5.6 1.2-7.7 3.2-10.9 6.2-1.1 0.9-2.6 1.1-3.9 0.5l-7.1-4.1-6.6 11.3 6.9 3.9c1.2 0.7 1.8 2.1 1.5 3.5-1 4.2-1 8.5 0 12.6 0.3 1.4-0.3 2.8-1.6 3.5l-6.9 4 6.5 11.2 7.3-4.1c1.2-0.7 2.7-0.5 3.7 0.5 3.4 3.1 5.5 5 11 6.2 1.5 0.4 2.6 1.7 2.5 3.2v7.9h13.2v-7.9c-0.2-1.3 0.5-2.4 1.7-2.9 4.9-2.2 8.5-4.4 10.8-6.5 1.1-1 2.6-1.1 3.9-0.4l6.4 3.9 6.5-11.1-6.9-4c-1.2-0.7-1.9-2.1-1.6-3.5 1-4.1 1-8.4 0-12.6-0.3-1.3 0.4-2.8 1.6-3.5l6.9-3.9zm67.5-25.9l-6.8-4c-1.3-0.7-1.9-2.1-1.6-3.4 1-4.2 1-8.5 0-12.7-0.3-1.3 0.3-2.7 1.6-3.4l6.9-4-6.5-11.1-6.4 3.9c-1.2 0.7-2.8 0.6-3.8-0.4-2.3-2.1-6-4.3-10.9-6.5-1.1-0.5-1.9-1.6-2-2.9v-7.9h-12.6v7.9c-0.2 1.5-1.2 2.8-2.7 3.1-5.6 1.3-7.7 3.2-10.9 6.2-1.1 1-2.6 1.2-3.9 0.5l-7.1-4-6.6 11.2 6.9 4c1.2 0.7 1.8 2.1 1.5 3.4-0.9 4.2-0.9 8.5 0 12.7 0.3 1.3-0.3 2.7-1.6 3.4l-6.9 4 6.5 11.2 7.3-4c1.2-0.7 2.7-0.5 3.8 0.4 3.3 3.1 5.4 5 11 6.3 1.4 0.3 2.5 1.6 2.4 3.1v8h13.2v-8c-0.2-1.2 0.5-2.4 1.7-2.9 4.9-2.2 8.5-4.3 10.8-6.5 1.1-0.9 2.6-1.1 3.9-0.3l6.4 3.9zm-36.6 2.3c-9 0-16.2-7.2-16.2-16.1 0-8.9 7.2-16.1 16.2-16.1 8.9 0 16.1 7.2 16.1 16.1 0 8.9-7.2 16.1-16.1 16.1zm9.6-16.1c0-5.3-4.3-9.7-9.6-9.7-5.4 0-9.7 4.4-9.7 9.7 0 5.4 4.3 9.7 9.7 9.7 5.3 0 9.6-4.3 9.6-9.7zm-70.9 80.6c-8.9 0-16.1-7.2-16.1-16.1 0-8.9 7.2-16.1 16.1-16.1 8.9 0 16.1 7.2 16.1 16.1 0 8.9-7.2 16.1-16.1 16.1zm9.7-16.1c0-5.3-4.4-9.7-9.7-9.7-5.4 0-9.7 4.4-9.7 9.7 0 5.4 4.3 9.7 9.7 9.7 5.3 0 9.7-4.3 9.7-9.7z"/>
</svg>