<?xml version="1.0" encoding="UTF-8" standalone="no"?>
<!DOCTYPE svg PUBLIC "-//W3C//DTD SVG 1.1//EN" "http://www.w3.org/Graphics/SVG/1.1/DTD/svg11.dtd">
<svg version="1.1" xmlns="http://www.w3.org/2000/svg" xmlns:xlink="http://www.w3.org/1999/xlink" xml:space="preserve" xmlns:serif="http://www.serif.com/" style="fill-rule:evenodd;clip-rule:evenodd;stroke-linejoin:round;stroke-miterlimit:2;">
    <path id="logo" fill-rule="evenodd" class="s0" d="m96.4 566.4c-31.8 0-57.8-25.9-57.8-57.8v-400.8c0-31.9 26-57.8 57.8-57.8h606.2c31.8 0 57.8 25.9 57.8 57.8v400.8c0 31.9-26 57.8-57.8 57.8h-204.9l5.7 54.4c0.5 4.4-0.9 8.8-3.9 12.1-2.9 3.2-7.1 5.1-11.5 5.1h-164.5c-4.4 0-8.6-1.9-11.6-5.1-2.9-3.3-4.4-7.7-3.9-12.1l5.8-54.4zm369.9 0h-121.3l-4.3 40.5h129.9zm-396.7-458.6v352.8h659.6v-352.8c0-14.8-12-26.7-26.7-26.7h-606.2c-14.7 0-26.7 11.9-26.7 26.7zm26.7 427.5h606.2c14.7 0 26.7-12 26.7-26.7v-16.9h-659.6v16.9c0 14.7 12 26.7 26.7 26.7zm592.4 214.6h-578.6c-5.5 0-10.5-2.8-13.3-7.4-2.8-4.7-3-10.5-0.5-15.3l30.7-59.1c2.7-5.1 8-8.4 13.8-8.4h517.2c5.8 0 11.1 3.3 13.8 8.4l30.7 59.1c2.6 4.8 2.4 10.6-0.5 15.3-2.8 4.6-7.8 7.4-13.3 7.4zm-25.6-31.1l-14.5-28h-498.4l-14.5 28zm-108.5-483.6l-20.1 34.8c0 0 0 0.1 0 0.1-1.9 3.1-6 4.2-9.2 2.2l-15.2-9.1c-4.9 3.7-10.9 7.1-18.6 10.7v18.8c0.3 3.7-2.7 6.7-6.4 6.7h-40.4c-3.7 0-6.7-3-6.7-6.7v-18c-9.3-2.9-14.8-6.9-20.1-11.6l-16.1 9c2.3-0.2 4.4 1.1 5.4 3.2l20.1 34.8c1.8 3.1 0.7 7.2-2.5 9.1l-16 9.2c1.1 7.3 1.1 14.8 0 22.2l16 9.2c3.2 1.9 4.3 6 2.5 9.2l-20.1 34.8c-0.1 0-0.1 0-0.1 0-1.8 3.2-6 4.2-9.1 2.3l-15.3-9.2c-4.8 3.7-10.8 7.2-18.2 10.7v18.9c0 3.7-3 6.7-6.7 6.7h-39.9c-3.7 0-6.7-3-6.3-6.7v-17.9c-9.8-2.9-15.3-6.9-20.6-11.6l-16.7 9.3c-3.2 1.7-7.2 0.6-9-2.5l-20.1-34.8c-1.8-3.2-0.7-7.2 2.5-9.1l16-9.2c-1.2-7.3-1.1-14.8 0.1-22.2l-15.9-9.2c-3.2-1.9-4.3-6-2.4-9.2l20.1-34.7c1.9-3.2 5.9-4.3 9.1-2.5l16.3 9.3c5.4-4.8 10.9-8.8 19.9-11.6v-18c0.3-3.7 3.3-6.7 7-6.7h39.8c3.7 0 6.7 3 6.7 6.7v18.9c7.4 3.5 13.4 7.1 18.2 10.7l14.9-9c-2.2-0.1-4.3-1.3-5.4-3.2l-20.1-34.8c-1.8-3.2-0.6-7.2 2.5-9.1l15.9-9.1c-1.1-7.3-1.1-14.8 0.1-22.2l-15.9-9.2c-3.2-1.9-4.2-6-2.4-9.2l20.3-34.7c1.9-3.2 5.9-4.3 9.1-2.5l16.3 9.2c5.4-4.7 10.8-8.7 20.1-11.6v-17.9c0-3.7 3-6.7 6.7-6.7h40.5c3.7 0 6.7 3 7.1 6.7v18.7c7 3.5 13 7.1 17.8 10.7l15.2-9.2h0.1c3.2-1.9 7.3-0.8 9.1 2.4l20.1 34.8c1.8 3.2 0.7 7.3-2.5 9.2l-16 9.2c1.2 7.4 1.2 14.8 0 22.2l16 9.2c3.2 1.8 4.3 5.9 2.5 9.1zm-155.2 52.7l-13.5 8.1c-2.6 1.6-5.8 1.2-8-0.8-4.8-4.4-12.4-8.9-22.5-13.4-2.4-1-3.9-3.4-4.2-6v-16.5h-26.1v16.4c-0.4 3.1-2.6 5.9-5.6 6.5-11.5 2.6-16 6.7-22.6 12.8-2.3 2-5.5 2.4-8.1 1.1l-14.7-8.4-13.6 23.3 14.2 8.2c2.5 1.5 3.8 4.4 3.2 7.2-2 8.7-2 17.6-0.1 26.2 0.6 2.8-0.7 5.7-3.2 7.2l-14.3 8.2 13.4 23.3 15.1-8.4c2.6-1.4 5.6-1 7.8 0.9 6.9 6.4 11.4 10.5 22.8 13 3.1 0.7 5.3 3.4 5 6.6v16.4h27.4v-16.4c-0.4-2.7 1.2-5.1 3.6-6.1 10.1-4.5 17.6-9 22.4-13.4 2.3-2 5.5-2.3 8-0.8l13.4 8.1 13.4-23.2-14.3-8.2c-2.5-1.5-3.8-4.3-3.2-7.2 1.9-8.6 1.9-17.5 0-26.2-0.6-2.8 0.7-5.7 3.2-7.2l14.3-8.2zm140.1-53.6l-14.2-8.3c-2.6-1.4-3.8-4.3-3.2-7.2 1.9-8.6 1.9-17.5 0-26.1-0.6-2.8 0.6-5.8 3.2-7.3l14.3-8.2-13.3-23.1-13.4 8.1c-2.5 1.6-5.7 1.2-7.9-0.8-4.8-4.3-12.4-8.9-22.5-13.3-2.4-1.1-4-3.5-4.2-6.1v-16.5h-26.1v16.4c-0.5 3.1-2.6 5.9-5.7 6.6-11.5 2.5-15.9 6.6-22.6 12.7-2.2 2-5.4 2.4-8 1.1l-14.8-8.4-13.6 23.3 14.2 8.2c2.5 1.5 3.8 4.4 3.2 7.3-2 8.6-2 17.5-0.1 26.1 0.6 2.8-0.6 5.8-3.2 7.2l-14.3 8.3 13.5 23.2 15.1-8.4c2.5-1.4 5.6-1 7.7 0.9 7 6.5 11.4 10.5 22.8 13 3.1 0.8 5.3 3.4 5.1 6.6v16.4h27.4v-16.4c-0.4-2.6 1.1-5 3.5-6.1 10.1-4.5 17.7-9 22.5-13.4 2.2-2 5.4-2.3 7.9-0.8l13.5 8.1zm-76.1 5c-18.5 0-33.5-15-33.5-33.5 0-18.5 15-33.4 33.5-33.4 18.5 0 33.4 14.9 33.4 33.4 0 18.5-14.9 33.5-33.4 33.5zm20-33.5c0-11.1-8.9-20.1-20-20.1-11.1 0-20.1 9-20.1 20.1 0 11.1 9 20.1 20.1 20.1 11.1 0 20-9 20-20.1zm-147.1 167.2c-18.5 0-33.4-14.9-33.4-33.4 0-18.5 14.9-33.5 33.4-33.5 18.5 0 33.5 15 33.5 33.5 0 18.5-15 33.4-33.5 33.4zm20.1-33.4c0-11.1-9-20.1-20.1-20.1-11.1 0-20 9-20 20.1 0 11.1 8.9 20 20 20 11.1 0 20.1-8.9 20.1-20z"/>
</svg>
